<?xml version="1.0" standalone="no"?>
<!DOCTYPE svg PUBLIC "-//W3C//DTD SVG 20010904//EN"
 "http://www.w3.org/TR/2001/REC-SVG-20010904/DTD/svg10.dtd">
<svg version="1.0" xmlns="http://www.w3.org/2000/svg"
 width="300.000000pt" height="176.000000pt" viewBox="0 0 300.000000 176.000000"
 preserveAspectRatio="xMidYMid meet">
<metadata>
Created by potrace 1.10, written by Peter Selinger 2001-2011
</metadata>
<g transform="translate(0.000000,176.000000) scale(0.050000,-0.050000)"
fill="#850069" stroke="none">
<path d="M2934 2965 c-138 -189 -192 -404 -111 -446 26 -13 76 -51 111 -84
l64 -61 63 54 c36 30 99 72 142 94 109 55 74 235 -89 451 -81 108 -95 108
-180 -8z"/>
<path d="M2592 2747 c-33 -84 -13 -142 51 -155 74 -14 68 -19 83 60 14 73
-109 160 -134 95z"/>
<path d="M3374 2748 c-50 -27 -55 -38 -43 -94 27 -124 129 -94 129 38 0 97 -5
100 -86 56z"/>
<path d="M2469 2462 c90 -255 411 -569 411 -402 0 22 18 87 40 144 l39 104
-54 58 c-71 74 -168 123 -301 152 -166 35 -167 35 -135 -56z"/>
<path d="M3335 2498 c-176 -41 -295 -171 -372 -405 -45 -135 -40 -140 114
-115 215 35 349 142 446 355 88 195 57 223 -188 165z"/>
<path d="M3541 2222 c-35 -69 -140 -176 -233 -237 -114 -76 328 15 517 106 98
47 95 58 -30 121 -188 96 -210 97 -254 10z"/>
<path d="M2327 2232 c-56 -26 -108 -57 -115 -69 -31 -50 273 -174 470 -192
138 -13 138 -16 -9 79 -34 22 -92 81 -129 130 -84 110 -89 112 -217 52z"/>
<path d="M914 1688 c-8 -8 -14 -158 -14 -333 l0 -317 75 6 75 6 -6 101 c-5 84
2 107 41 145 l48 44 95 -150 95 -150 90 0 c103 0 108 -18 -65 222 l-124 172
133 133 133 133 -93 0 c-90 0 -98 -5 -226 -145 l-133 -145 6 140 6 140 -61 6
c-33 3 -67 -1 -75 -8z"/>
<path d="M1831 1682 c-7 -11 -60 -144 -119 -296 -59 -152 -114 -292 -122 -312
-14 -32 -6 -36 62 -30 69 5 81 14 101 76 22 69 24 70 144 76 l121 6 22 -81
c21 -77 25 -81 101 -81 l79 0 -30 75 c-17 41 -73 188 -125 325 -93 242 -98
250 -158 256 -35 3 -69 -3 -76 -14z m107 -244 c14 -45 30 -95 36 -110 8 -21
-10 -28 -74 -28 -64 0 -82 7 -74 28 6 15 22 65 36 110 13 45 30 82 38 82 8 0
25 -37 38 -82z"/>
<path d="M2360 1366 l0 -328 75 6 75 6 -7 125 -7 125 100 0 c119 0 148 -28
163 -157 11 -91 13 -93 86 -99 74 -6 74 -6 63 60 -26 146 -52 219 -80 230 -25
9 -23 17 11 49 59 56 72 130 34 209 -37 78 -54 83 -318 94 l-195 8 0 -328z
m376 190 c76 -76 9 -156 -130 -156 l-106 0 0 90 0 90 106 0 c58 0 117 -11 130
-24z"/>
<path d="M3108 1671 c-22 -56 4 -458 32 -517 37 -76 117 -114 240 -114 224 0
280 85 280 429 l0 233 -73 -6 -72 -6 3 -217 c5 -264 -16 -313 -136 -313 -110
0 -120 23 -126 291 l-6 239 -65 6 c-45 5 -69 -3 -77 -25z"/>
<path d="M3880 1369 l0 -332 63 7 62 6 -2 220 c-1 153 4 211 18 190 11 -16 72
-115 136 -220 109 -180 119 -190 189 -196 l74 -6 0 331 0 331 -70 0 -70 0 0
-223 0 -223 -134 223 c-128 211 -138 223 -200 223 l-66 0 0 -331z"/>
<path d="M4813 1685 c-20 -35 -233 -602 -233 -622 0 -70 134 -22 158 57 l24
80 118 0 118 0 24 -80 c23 -76 29 -80 103 -80 43 0 75 7 72 16 -4 9 -60 157
-125 330 l-118 314 -66 0 c-36 0 -70 -7 -75 -15z m105 -247 c14 -45 30 -95 36
-110 8 -21 -10 -28 -74 -28 -64 0 -82 7 -74 28 6 15 22 65 36 110 13 45 30 82
38 82 8 0 25 -37 38 -82z"/>
</g>
</svg>
