<svg xmlns="http://www.w3.org/2000/svg" version="1.0" width="300.000000pt" height="300.000000pt" viewBox="0 0 300.000000 176.000000" preserveAspectRatio="xMidYMid meet">
<g transform="translate(0.000000,176.000000) scale(0.050000,-0.050000)" fill="#000000" stroke="none">
<path d="M2934 2965 c-138 -189 -192 -404 -111 -446 26 -13 76 -51 111 -84 l64 -61 63 54 c36 30 99 72 142 94 109 55 74 235 -89 451 -81 108 -95 108 -180 -8z"/>
<path d="M2592 2747 c-33 -84 -13 -142 51 -155 74 -14 68 -19 83 60 14 73 -109 160 -134 95z"/>
<path d="M3374 2748 c-50 -27 -55 -38 -43 -94 27 -124 129 -94 129 38 0 97 -5 100 -86 56z"/>
<path d="M2469 2462 c90 -255 411 -569 411 -402 0 22 18 87 40 144 l39 104 -54 58 c-71 74 -168 123 -301 152 -166 35 -167 35 -135 -56z"/>
<path d="M3335 2498 c-176 -41 -295 -171 -372 -405 -45 -135 -40 -140 114 -115 215 35 349 142 446 355 88 195 57 223 -188 165z"/>
<path d="M3541 2222 c-35 -69 -140 -176 -233 -237 -114 -76 328 15 517 106 98 47 95 58 -30 121 -188 96 -210 97 -254 10z"/>
<path d="M2327 2232 c-56 -26 -108 -57 -115 -69 -31 -50 273 -174 470 -192 138 -13 138 -16 -9 79 -34 22 -92 81 -129 130 -84 110 -89 112 -217 52z"/>
</g>
</svg>